<svg width="256" height="256" viewBox="0 0 256 256" fill="none" xmlns="http://www.w3.org/2000/svg">
  <defs>
    <linearGradient id="amber" x1="48" y1="36" x2="210" y2="220" gradientUnits="userSpaceOnUse">
      <stop offset="0" stop-color="#FCD34D"/>
      <stop offset="0.5" stop-color="#F59E0B"/>
      <stop offset="1" stop-color="#B45309"/>
    </linearGradient>
    <linearGradient id="bg" x1="32" y1="24" x2="224" y2="232" gradientUnits="userSpaceOnUse">
      <stop offset="0" stop-color="#18181B"/>
      <stop offset="1" stop-color="#0A0A0B"/>
    </linearGradient>
  </defs>
  <rect x="18" y="18" width="220" height="220" rx="54" fill="url(#bg)"/>
  <rect x="18.5" y="18.5" width="219" height="219" rx="53.5" stroke="#27272A"/>
  <path d="M128 34L209 80.75V174.25L128 221L47 174.25V80.75L128 34Z" fill="#111113" stroke="url(#amber)" stroke-width="10" stroke-linejoin="round"/>
  <path d="M128 63L176 90.75V146.25L128 174L80 146.25V90.75L128 63Z" fill="#F59E0B" fill-opacity="0.13"/>
  <path d="M79 166L128 137.5L177 166V185.5L128 214L79 185.5V166Z" fill="#F59E0B" fill-opacity="0.07"/>
  <path d="M70 160L103 136L130 151L183 100" stroke="url(#amber)" stroke-width="13" stroke-linecap="round" stroke-linejoin="round"/>
  <path d="M152 100H183V131" stroke="#FDE68A" stroke-width="11" stroke-linecap="round" stroke-linejoin="round"/>
  <circle cx="70" cy="160" r="8" fill="#0A0A0B" stroke="#FCD34D" stroke-width="5"/>
  <circle cx="103" cy="136" r="8" fill="#0A0A0B" stroke="#FCD34D" stroke-width="5"/>
  <circle cx="130" cy="151" r="8" fill="#0A0A0B" stroke="#FCD34D" stroke-width="5"/>
  <circle cx="183" cy="100" r="8" fill="#0A0A0B" stroke="#FCD34D" stroke-width="5"/>
</svg>
